<?xml version="1.0" encoding="iso-8859-1"?>
<!-- Generator: Adobe Illustrator 18.1.1, SVG Export Plug-In . SVG Version: 6.00 Build 0)  -->
<svg version="1.1" id="Capa_1" xmlns="http://www.w3.org/2000/svg" xmlns:xlink="http://www.w3.org/1999/xlink" x="0px" y="0px"
	 viewBox="0 0 59.301 59.301" style="enable-background:new 0 0 59.301 59.301;" xml:space="preserve">
<g>
	<path style="fill:#010002;" d="M37.724,26.571c-0.863-1.419-1.842-3.026-1.74-6.223c0.094-2.979,1.783-5.002,2.783-5.943
		c0.504-0.474,1.058-1.351,1.084-2.156c0.08-2.35-0.619-4.017-1.22-5.002c-0.444-0.731-1.421-1.156-2.142-1.242
		c-0.854-0.102-2.434-0.366-3.415-0.993c-0.71-0.453-0.911-1.36-0.953-2.066c0.228-0.286,0.368-0.612,0.368-0.969
		C32.489,0.868,31.238,0,29.643,0c-1.596,0-2.847,0.868-2.847,1.977c0,0.365,0.147,0.699,0.385,0.99
		c-0.044,0.702-0.247,1.593-0.954,2.044c-0.982,0.627-2.562,0.892-3.416,0.993c-0.742,0.088-1.715,0.544-2.141,1.243
		c-0.6,0.985-1.298,2.652-1.22,4.999c0.028,0.808,0.582,1.685,1.085,2.158c0.999,0.941,2.689,2.964,2.783,5.943
		c0.101,3.197-0.877,4.805-1.742,6.227c-0.316,0.521-0.616,1.015-0.834,1.544c-0.707,1.718-1.464,6.409-1.088,10.145
		c0.093,0.918,0.936,1.666,1.879,1.666h4.989c-0.287,0.946-0.781,2.043-1.473,2.305c-0.501-0.141-1.082,0.016-1.402,0.443
		c-0.424,0.565-0.309,1.375,0.263,1.803c0.095,0.07,0.868,0.619,2.24,0.979c-0.645,1.162-1.417,2.941-1.368,4.731
		c0.051,1.854,0.731,3.439,1.846,4.347l-0.037,0.067c-6.199,0.185-6.293,1.591-6.293,1.699v1.672c0,0.207,0.126,0.392,0.318,0.468
		c1.3,0.506,4.604,0.858,8.034,0.858c2.823,0,7.883-0.567,8.098-0.592c0.252-0.029,0.443-0.242,0.443-0.498v-1.905
		c0-0.104-0.094-1.494-6.069-1.69l-0.016-0.023c0.953-0.683,1.896-2.025,1.879-4.67c-0.012-2-0.668-3.5-1.354-4.525
		c1.307-0.389,1.94-0.945,2.07-1.068c0.512-0.486,0.535-1.275,0.055-1.799c-0.326-0.355-0.857-0.463-1.312-0.34
		c-0.741-0.189-1.266-1.312-1.563-2.26h6.888c0.942,0,1.785-0.748,1.879-1.666c0.375-3.734-0.381-8.424-1.088-10.145
		C38.341,27.589,38.041,27.096,37.724,26.571z M29.644,1.264c0.951,0,1.58,0.428,1.58,0.712s-0.629,0.712-1.58,0.712
		c-0.95,0-1.581-0.428-1.581-0.712S28.694,1.264,29.644,1.264z M36.192,57.766c-1.394,0.395-5.252,0.537-7.541,0.537
		c-3.369,0-6.123-0.33-7.352-0.687v-0.54c0.932,0.289,2.804,0.599,6.545,0.599l0.813-0.005c4.438-0.051,6.551-0.385,7.534-0.649
		L36.192,57.766L36.192,57.766z M32.614,43.186c0.089-0.074,0.225-0.182,0.406,0.02c0.107,0.115,0.104,0.291-0.008,0.396
		c-0.029,0.026-0.722,0.674-2.328,0.998c-0.172,0.035-0.312,0.158-0.373,0.324c-0.058,0.163-0.024,0.35,0.086,0.483
		c0.719,0.871,1.576,2.358,1.59,4.519c0.013,2.047-0.616,3.452-1.817,4.065c-0.128,0.065-0.222,0.185-0.257,0.321
		c-0.036,0.142-0.009,0.287,0.072,0.406l0.457,0.668c0.091,0.131,0.238,0.211,0.397,0.217c1.939,0.058,3.323,0.185,4.207,0.314
		c-1.268,0.184-3.463,0.346-6.302,0.346c-2.841,0-5.037-0.162-6.304-0.346c0.922-0.137,2.39-0.27,4.467-0.322
		c0.18-0.006,0.343-0.104,0.428-0.264l0.381-0.711c0.125-0.232,0.048-0.521-0.176-0.662c-1.054-0.656-1.711-2.074-1.758-3.797
		c-0.052-1.877,0.962-3.799,1.571-4.779c0.087-0.139,0.1-0.313,0.032-0.465c-0.066-0.152-0.203-0.26-0.366-0.289
		c-1.608-0.299-2.48-0.93-2.513-0.953c-0.127-0.096-0.153-0.276-0.059-0.404c0.08-0.106,0.162-0.231,0.419-0.045
		c0.241,0.164,1.564,0.982,3.873,0.982l0.184-0.002C31.505,44.159,32.572,43.225,32.614,43.186z M31.379,42.749
		c-0.483,0.205-1.278,0.439-2.472,0.461l-0.165,0.002c-1.194,0-2.076-0.252-2.629-0.473c0.774-0.715,1.223-1.939,1.458-2.811h2.259
		C30.069,40.796,30.542,42.061,31.379,42.749z M38.154,38.11c-0.017,0.158-0.212,0.318-0.388,0.318H21.535
		c-0.176,0-0.371-0.16-0.387-0.316c-0.347-3.451,0.351-7.885,0.983-9.422c0.174-0.424,0.432-0.848,0.73-1.339
		c0.923-1.517,2.071-3.405,1.958-7.049c-0.111-3.519-2.087-5.889-3.256-6.989c-0.311-0.292-0.604-0.824-0.612-1.116
		c-0.066-1.977,0.508-3.359,1.001-4.17c0.121-0.198,0.623-0.483,1.036-0.533c1.197-0.142,2.872-0.469,4.046-1.218
		C27.983,5.671,28.4,4.7,28.575,3.812c0.329,0.09,0.688,0.142,1.066,0.142c0.387,0,0.75-0.053,1.084-0.146
		c0.174,0.891,0.59,1.861,1.541,2.468c1.174,0.749,2.848,1.076,4.045,1.218c0.426,0.051,0.916,0.333,1.037,0.532
		c0.493,0.812,1.067,2.196,1,4.173c-0.009,0.29-0.302,0.821-0.613,1.114c-1.168,1.1-3.144,3.471-3.254,6.989
		c-0.113,3.645,1.035,5.533,1.957,7.049c0.3,0.491,0.559,0.916,0.731,1.34C37.806,30.227,38.501,34.663,38.154,38.11z"/>
</g>
<g>
</g>
<g>
</g>
<g>
</g>
<g>
</g>
<g>
</g>
<g>
</g>
<g>
</g>
<g>
</g>
<g>
</g>
<g>
</g>
<g>
</g>
<g>
</g>
<g>
</g>
<g>
</g>
<g>
</g>
</svg>
