<?xml version="1.0" encoding="iso-8859-1"?>
<!-- Generator: Adobe Illustrator 19.0.0, SVG Export Plug-In . SVG Version: 6.00 Build 0)  -->
<svg version="1.1" id="Layer_1" xmlns="http://www.w3.org/2000/svg" xmlns:xlink="http://www.w3.org/1999/xlink" x="0px" y="0px"
	 viewBox="0 0 512 512" style="enable-background:new 0 0 512 512;" xml:space="preserve">
<g transform="translate(1 1)">
	<g>
		<g>
			<path d="M255-1C114.2-1-1,114.2-1,255s115.2,256,256,256s256-115.2,256-256S395.8-1,255-1z M255,493.933
				c-131.413,0-238.933-107.52-238.933-238.933S123.587,16.067,255,16.067S493.933,123.587,493.933,255S386.413,493.933,255,493.933
				z"/>
			<path d="M255,67.267c-103.253,0-187.733,84.48-187.733,187.733S151.747,442.733,255,442.733S442.733,358.253,442.733,255
				S358.253,67.267,255,67.267z M255,425.667c-93.867,0-170.667-76.8-170.667-170.667S161.133,84.333,255,84.333
				S425.667,161.133,425.667,255S348.867,425.667,255,425.667z"/>
			<path d="M348.867,203.8c-25.253,0-46.375,18.533-50.47,42.667h-34.863v-34.863c24.134-4.095,42.667-25.217,42.667-50.47
				c0-28.16-23.04-51.2-51.2-51.2c-28.16,0-51.2,23.04-51.2,51.2c0,25.253,18.533,46.375,42.667,50.47v34.863h-34.863
				c-4.095-24.134-25.217-42.667-50.47-42.667c-28.16,0-51.2,23.04-51.2,51.2c0,28.16,23.04,51.2,51.2,51.2
				c25.253,0,46.375-18.533,50.47-42.667h34.863v34.863c-24.134,4.095-42.667,25.217-42.667,50.47c0,28.16,23.04,51.2,51.2,51.2
				c28.16,0,51.2-23.04,51.2-51.2c0-25.253-18.533-46.375-42.667-50.47v-34.863h34.863c4.095,24.134,25.217,42.667,50.47,42.667
				c28.16,0,51.2-23.04,51.2-51.2C400.067,226.84,377.027,203.8,348.867,203.8z M220.867,161.133
				C220.867,142.36,236.227,127,255,127c18.773,0,34.133,15.36,34.133,34.133c0,15.83-10.921,29.232-25.6,33.046v-33.046
				c0-5.12-3.413-8.533-8.533-8.533s-8.533,3.413-8.533,8.533v33.046C231.788,190.365,220.867,176.963,220.867,161.133z
				 M161.133,289.133C142.36,289.133,127,273.773,127,255c0-18.773,15.36-34.133,34.133-34.133c15.829,0,29.232,10.921,33.046,25.6
				h-33.046c-5.12,0-8.533,3.413-8.533,8.533s3.413,8.533,8.533,8.533h33.046C190.365,278.213,176.963,289.133,161.133,289.133z
				 M289.133,348.867C289.133,367.64,273.773,383,255,383c-18.773,0-34.133-15.36-34.133-34.133c0-15.83,10.921-29.232,25.6-33.046
				v33.046c0,5.12,3.413,8.533,8.533,8.533s8.533-3.413,8.533-8.533v-33.046C278.213,319.635,289.133,333.037,289.133,348.867z
				 M348.867,289.133c-15.83,0-29.232-10.921-33.046-25.6h33.046c5.12,0,8.533-3.413,8.533-8.533s-3.413-8.533-8.533-8.533h-33.046
				c3.814-14.679,17.216-25.6,33.046-25.6C367.64,220.867,383,236.227,383,255C383,273.773,367.64,289.133,348.867,289.133z"/>
		</g>
	</g>
</g>
<g>
</g>
<g>
</g>
<g>
</g>
<g>
</g>
<g>
</g>
<g>
</g>
<g>
</g>
<g>
</g>
<g>
</g>
<g>
</g>
<g>
</g>
<g>
</g>
<g>
</g>
<g>
</g>
<g>
</g>
</svg>
